<svg width="103" height="103" viewBox="0 0 103 103" fill="none" xmlns="http://www.w3.org/2000/svg">
<path d="M29.74 6.02002H54.67C58.33 6.02002 61.51 6.50002 64.21 7.46002C66.91 8.42002 68.92 9.53002 70.24 10.79C71.56 12.05 72.61 13.55 73.39 15.29C74.23 16.97 74.71 18.32 74.83 19.34C75.01 20.36 75.1 21.35 75.1 22.31C75.1 26.03 74.02 29.33 71.86 32.21C69.76 35.09 66.76 37.04 62.86 38.06C66.16 38.9 68.53 40.25 69.97 42.11C71.41 43.91 72.34 46.67 72.76 50.39C73.72 59.15 75.07 66.02 76.81 71H67.18C66.58 69.5 65.5 63.14 63.94 51.92C63.34 47.24 61.69 44.27 58.99 43.01C57.07 42.11 53.92 41.66 49.54 41.66H38.65V71H29.74V6.02002ZM38.47 34.01H52.96C57.28 34.01 60.43 33.26 62.41 31.76C64.57 30.14 65.65 27.59 65.65 24.11C65.65 17.09 61.45 13.58 53.05 13.58H38.47V34.01Z" fill="black"/>
<path d="M29 93H77V99H29V93Z" fill="black"/>
</svg>
